<svg id="Layer_1" data-name="Layer 1" xmlns="http://www.w3.org/2000/svg" viewBox="0 0 58.88 71.86"><defs><style>.cls-1{fill:#fff;}.cls-2{fill:#616365;}.cls-3{fill:none;}</style></defs><title>trash can open</title><path class="cls-1" d="M26.37,27.81a2.06,2.06,0,0,0-4.1.38L25.91,67a2.06,2.06,0,0,0,2,1.87H28.1A2.06,2.06,0,0,0,30,66.62v0Zm25.54-1.86a2.06,2.06,0,0,0-2.24,1.86L46,66.6a2.06,2.06,0,0,0,1.86,2.24h0.19a2.06,2.06,0,0,0,2-1.87l3.64-38.79a2.06,2.06,0,0,0-1.81-2.23h0Zm-14,0a2,2,0,0,0-2,2s0,0,0,.06V66.8a2,2,0,0,0,4.1,0V28a2,2,0,0,0-1.94-2.06H37.91Z" transform="translate(-5.33 -0.11)"/><path class="cls-2" d="M63.85,19.31c0.74-2.45.72-2.39-4.17-5.59A90.8,90.8,0,0,0,51,9.06,7.18,7.18,0,0,0,37.28,5a91.36,91.36,0,0,0-9.85-.9c-5.84,0-5.82-.08-6.56,2.37L42.4,12.89ZM41,5.63a3.54,3.54,0,0,1,6.68,2c-1-.41-2.11-0.78-3.14-1.09H44.35l-0.2-.06A31.17,31.17,0,0,0,41,5.63ZM63.24,21.74H18.34a1.57,1.57,0,0,0,0,.33l5.89,44.79c0.12,1.77.51,2.55,2.9,3.19,0,0,3.46,1.91,13.7,1.92s13.66-1.91,13.66-1.91c2.39-.64,2.76-1.45,2.88-3.22l5.89-44.78A1.29,1.29,0,0,0,63.24,21.74Z" transform="translate(-5.33 -0.11)"/><path class="cls-1" d="M30.53,29.52a1.82,1.82,0,1,0-3.63.34l3.22,34.32A1.82,1.82,0,0,0,32,65.84h0.17a1.82,1.82,0,0,0,1.65-2v0Zm22.6-1.65a1.82,1.82,0,0,0-2,1.62v0L47.92,63.85a1.82,1.82,0,0,0,1.62,2h0.2a1.82,1.82,0,0,0,1.81-1.65l3.22-34.34a1.82,1.82,0,0,0-1.65-2h0Zm-12.4,0a1.81,1.81,0,0,0-1.81,1.81h0V64.06a1.81,1.81,0,1,0,3.62,0h0V29.69a1.81,1.81,0,0,0-1.8-1.82h0Z" transform="translate(-5.33 -0.11)"/><path class="cls-3" d="M8.82,63.6a1.85,1.85,0,0,0-2.58.45h0a5.37,5.37,0,0,0-.85,2.78,2.45,2.45,0,0,0,0,1.12,2.46,2.46,0,0,0,1,1,3.17,3.17,0,0,0,1.85.8,3.17,3.17,0,0,0,1.73-.7l5.09-3.7A2.2,2.2,0,0,0,16.14,64c0.1-1-1-1.57-2-1.76a11.79,11.79,0,0,0-7.86,1.2" transform="translate(-5.33 -0.11)"/></svg>