<svg id="Layer_1" data-name="Layer 1" xmlns="http://www.w3.org/2000/svg" viewBox="0 0 30.38 30.38"><defs><style>.cls-1{fill:#fff;stroke:#5f6263;stroke-linecap:round;stroke-width:2px;}.cls-1,.cls-2,.cls-3,.cls-4{stroke-miterlimit:10;}.cls-2{fill:#77af42;stroke:#fff;stroke-width:0.7px;}.cls-3,.cls-4{fill:none;stroke:#231f20;}.cls-4{stroke-width:1.7px;}</style></defs><title>small check w border</title><circle class="cls-1" cx="15.19" cy="15.19" r="14.19"/><path class="cls-2" d="M15.69,28.3L10.36,23a1.61,1.61,0,0,1,0-2.26l1.34-1.37a1.59,1.59,0,0,1,2.25,0l3.93,3.89L28.93,10a1.59,1.59,0,0,1,2.24-.2L32.63,11a1.6,1.6,0,0,1,.2,2.25L20.51,28.06a3.29,3.29,0,0,1-2.36,1.18H18A3.29,3.29,0,0,1,15.69,28.3Z" transform="translate(-4.81 -4.81)"/><line class="cls-3" x1="12.27" y1="1.3" x2="12.27" y2="1.3"/><line class="cls-4" x1="16.74" y1="1.08" x2="16.74" y2="1.08"/><line class="cls-4" x1="22.44" y1="2.99" x2="22.44" y2="2.99"/></svg>