<svg id="Layer_1" data-name="Layer 1" xmlns="http://www.w3.org/2000/svg" viewBox="0 0 19.01 18.24"><defs><style>.cls-1{fill:none;stroke:#e5e5e5;stroke-miterlimit:10;fill-rule:evenodd;}</style></defs><title>star outline</title><path class="cls-1" d="M51,7l2.48,4,4.67,1.13A1.13,1.13,0,0,1,59,13.49a1.08,1.08,0,0,1-.24.47h0l-3.11,3.66L56,22.41a1.12,1.12,0,0,1-1.62,1.09L50,21.7l-4.45,1.84a1.12,1.12,0,0,1-1.46-.61A1.05,1.05,0,0,1,44,22.41h0l0.37-4.8L41.26,14a1.12,1.12,0,0,1,.63-1.83L46.52,11,49,6.92a1.13,1.13,0,0,1,1.55-.37A1.12,1.12,0,0,1,51,7h0Z" transform="translate(-40.49 -5.88)"/></svg>