<svg id="Layer_1" data-name="Layer 1" xmlns="http://www.w3.org/2000/svg" xmlns:xlink="http://www.w3.org/1999/xlink" viewBox="0 0 30.38 30.38"><defs><style>.cls-1{fill:none;}.cls-2{fill:#fff;stroke:#5f6263;stroke-linecap:round;stroke-miterlimit:10;stroke-width:2px;}.cls-3{clip-path:url(#clip-path);}.cls-4{fill:#f47640;}</style><clipPath id="clip-path" transform="translate(-4.81 -4.81)"><rect class="cls-1" x="13.64" y="10.41" width="12.72" height="19.71"/></clipPath></defs><title>circle w question mark</title><circle class="cls-2" cx="15.19" cy="15.19" r="14.19"/><g class="cls-3"><path class="cls-4" d="M20,10.41c-3.51,0-6.36,2.47-6.36,5.5a1.63,1.63,0,0,0,1.73,1.5,1.63,1.63,0,0,0,1.73-1.5A2.73,2.73,0,0,1,20,13.4a2.73,2.73,0,0,1,2.9,2.5,2.72,2.72,0,0,1-2.9,2.5,1.63,1.63,0,0,0-1.73,1.5v3.38A1.63,1.63,0,0,0,20,24.78a1.63,1.63,0,0,0,1.73-1.5V21.19a5.7,5.7,0,0,0,4.63-5.29c0-3-2.85-5.5-6.36-5.5h0Zm0,0" transform="translate(-4.81 -4.81)"/></g><path class="cls-4" d="M20,25.91A2.28,2.28,0,0,0,17.58,28,2.28,2.28,0,0,0,20,30.1,2.28,2.28,0,0,0,22.43,28,2.28,2.28,0,0,0,20,25.91h0Zm0,0" transform="translate(-4.81 -4.81)"/></svg>