<svg id="Layer_1" data-name="Layer 1" xmlns="http://www.w3.org/2000/svg" viewBox="0 0 50.78 75.44"><defs><style>.cls-1{fill:#616365;}.cls-2{fill:#fff;}</style></defs><title>trash can</title><path class="cls-1" d="M65.35,17.11c0-2.89,0-2.82-6.33-4.7a102.62,102.62,0,0,0-10.86-2.18,8.12,8.12,0,0,0-16.23,0,103.25,103.25,0,0,0-11,2.19c-6.33,1.88-6.33,1.81-6.33,4.7H65.35ZM36.1,9.74a4,4,0,0,1,7.88,0c-1.27-.1-2.53-0.16-3.75-0.16H39.8C38.6,9.58,37.36,9.64,36.1,9.74ZM65.37,21H14.62a1.78,1.78,0,0,0,0,.37l6.66,50.61c0.14,2,.58,2.88,3.28,3.61,0,0,3.91,2.16,15.48,2.17s15.43-2.19,15.43-2.19c2.7-.73,3.12-1.64,3.26-3.64l6.65-50.56A1.46,1.46,0,0,0,65.37,21Z" transform="translate(-14.61 -2.28)"/><path class="cls-2" d="M28.4,29.75a2.06,2.06,0,0,0-4.1.38l3.64,38.79a2.06,2.06,0,0,0,2,1.87h0.19A2.06,2.06,0,0,0,32,68.54Zm25.54-1.86a2.06,2.06,0,0,0-2.24,1.86L48.05,68.54a2.06,2.06,0,0,0,1.86,2.24h0.19a2.06,2.06,0,0,0,2-1.87l3.64-38.79A2.06,2.06,0,0,0,53.93,27.89Zm-14,0a2,2,0,0,0-2,2.06V68.74a2,2,0,1,0,4.1,0V29.95A2,2,0,0,0,39.92,27.89Z" transform="translate(-14.61 -2.28)"/></svg>