<svg id="Layer_1" data-name="Layer 1" xmlns="http://www.w3.org/2000/svg" viewBox="0 0 31.66 30.38"><defs><style>.cls-1{fill:#fff;stroke:#5f6263;stroke-linecap:round;stroke-width:2px;}.cls-1,.cls-2,.cls-3,.cls-4{stroke-miterlimit:10;}.cls-2{fill:#77af42;stroke:#fff;stroke-width:0.7px;}.cls-3,.cls-4{fill:none;stroke:#231f20;}.cls-4{stroke-width:1.7px;}</style></defs><title>check w border</title><circle class="cls-1" cx="15.19" cy="15.19" r="14.19"/><path class="cls-2" d="M16.56,27.61l-6-6.25a2,2,0,0,1,0-2.68l1.5-1.62a1.7,1.7,0,0,1,2.51,0L19,21.64,31.34,5.9a1.7,1.7,0,0,1,2.51-.24l1.64,1.46a2,2,0,0,1,.22,2.67L21.95,27.33a3.6,3.6,0,0,1-2.63,1.4H19.14A3.57,3.57,0,0,1,16.56,27.61Z" transform="translate(-4.81 -4.81)"/><line class="cls-3" x1="12.27" y1="1.3" x2="12.27" y2="1.3"/><line class="cls-4" x1="16.74" y1="1.08" x2="16.74" y2="1.08"/><line class="cls-4" x1="22.44" y1="2.99" x2="22.44" y2="2.99"/></svg>