<svg id="Layer_1" data-name="Layer 1" xmlns="http://www.w3.org/2000/svg" viewBox="0 0 29.38 29.65"><defs><style>.cls-1{fill:#5f6263;stroke:#5f6263;stroke-linecap:round;}.cls-1,.cls-3,.cls-4{stroke-miterlimit:10;}.cls-2{fill:#77af42;}.cls-3,.cls-4{fill:none;stroke:#231f20;}.cls-4{stroke-width:1.7px;}</style></defs><title>check w bkgrnd</title><circle class="cls-1" cx="14.69" cy="14.96" r="14.19"/><path class="cls-2" d="M15.36,28.35l-5-5a1.52,1.52,0,0,1,0-2.14l1.26-1.29a1.5,1.5,0,0,1,2.12,0l3.7,3.67L27.83,11.06a1.49,1.49,0,0,1,2.11-.19L31.33,12a1.52,1.52,0,0,1,.19,2.13l-11.62,14a3.1,3.1,0,0,1-2.22,1.12H17.53A3.1,3.1,0,0,1,15.36,28.35Z" transform="translate(-5.31 -5.04)"/><line class="cls-3" x1="11.77" y1="1.07" x2="11.77" y2="1.07"/><line class="cls-4" x1="16.24" y1="0.85" x2="16.24" y2="0.85"/><line class="cls-4" x1="21.94" y1="2.76" x2="21.94" y2="2.76"/></svg>