<svg xmlns="http://www.w3.org/2000/svg" xmlns:xlink="http://www.w3.org/1999/xlink" viewBox="0 0 70 70"><defs><style>.cls-1{fill:none;}.cls-2,.cls-3,.cls-9{fill:#007da4;}.cls-3{clip-rule:evenodd;}.cls-4{clip-path:url(#clip-path);}.cls-5{clip-path:url(#clip-path-2);}.cls-6{fill:#fff;}.cls-7{clip-path:url(#clip-path-3);}.cls-8{clip-path:url(#clip-path-4);}.cls-9{fill-rule:evenodd;}.cls-10{clip-path:url(#clip-path-5);}.cls-11{clip-path:url(#clip-path-7);}.cls-12{clip-path:url(#clip-path-9);}.cls-13{clip-path:url(#clip-path-11);}.cls-14{clip-path:url(#clip-path-13);}.cls-15{clip-path:url(#clip-path-15);}.cls-16{clip-path:url(#clip-path-17);}</style><clipPath id="clip-path"><circle class="cls-1" cx="35" cy="35" r="30"/></clipPath><clipPath id="clip-path-2"><rect class="cls-1" x="5" y="5" width="61" height="60"/></clipPath><clipPath id="clip-path-3"><circle class="cls-2" cx="20.85" cy="30.57" r="2.52"/></clipPath><clipPath id="clip-path-4"><rect class="cls-2" x="5" y="5" width="61" height="60"/></clipPath><clipPath id="clip-path-5"><path class="cls-3" d="M22.39,33.23a2.67,2.67,0,0,1-3.08,0A2.78,2.78,0,0,0,17,36v4.81a.86.86,0,0,0,.86.86h6a.86.86,0,0,0,.86-.86V36A2.78,2.78,0,0,0,22.39,33.23Z"/></clipPath><clipPath id="clip-path-7"><circle class="cls-2" cx="31.04" cy="28.65" r="3.65"/></clipPath><clipPath id="clip-path-9"><path class="cls-3" d="M33.28,32.51h0a3.46,3.46,0,0,1-2.23.71,3.9,3.9,0,0,1-2.23-.71,4.11,4.11,0,0,0-3.35,4v7.36a.86.86,0,0,0,.86.86h9.45a.86.86,0,0,0,.86-.86V36.46A4,4,0,0,0,33.28,32.51Z"/></clipPath><clipPath id="clip-path-11"><circle class="cls-2" cx="41.34" cy="30.57" r="2.52"/></clipPath><clipPath id="clip-path-13"><path class="cls-3" d="M42.88,33.23a2.39,2.39,0,0,1-1.54.49,2.69,2.69,0,0,1-1.54-.49A2.83,2.83,0,0,0,37.49,36v4.81a.86.86,0,0,0,.86.86h6a.86.86,0,0,0,.86-.86V36A2.78,2.78,0,0,0,42.88,33.23Z"/></clipPath><clipPath id="clip-path-15"><circle class="cls-2" cx="50.07" cy="30.57" r="2.52"/></clipPath><clipPath id="clip-path-17"><path class="cls-3" d="M50.07,33.72a2.83,2.83,0,0,1-1.54-.49A2.83,2.83,0,0,0,46.21,36v4.81a.86.86,0,0,0,.86.86h6a.86.86,0,0,0,.86-.86V36a2.78,2.78,0,0,0-2.33-2.73A2.39,2.39,0,0,1,50.07,33.72Z"/></clipPath></defs><title>personalized breadcrumb med blue</title><g id="Layer_2" data-name="Layer 2"><g id="Layer_1-2" data-name="Layer 1"><g class="cls-4"><g class="cls-5"><rect class="cls-6" width="70" height="70"/></g></g><circle class="cls-2" cx="20.85" cy="30.57" r="2.52"/><g class="cls-7"><rect class="cls-2" x="5" y="5" width="61" height="60"/><g class="cls-8"><rect class="cls-2" x="13.33" y="23.05" width="15.04" height="15.04"/></g></g><path class="cls-9" d="M22.39,33.23a2.67,2.67,0,0,1-3.08,0A2.78,2.78,0,0,0,17,36v4.81a.86.86,0,0,0,.86.86h6a.86.86,0,0,0,.86-.86V36A2.78,2.78,0,0,0,22.39,33.23Z"/><g class="cls-10"><rect class="cls-2" x="5" y="5" width="61" height="60"/><g class="cls-8"><rect class="cls-2" x="12" y="28.23" width="17.71" height="18.41"/></g></g><circle class="cls-2" cx="31.04" cy="28.65" r="3.65"/><g class="cls-11"><rect class="cls-2" x="5" y="5" width="61" height="60"/><g class="cls-8"><rect class="cls-2" x="22.39" y="20" width="17.3" height="17.3"/></g></g><path class="cls-9" d="M33.28,32.51h0a3.46,3.46,0,0,1-2.23.71,3.9,3.9,0,0,1-2.23-.71,4.11,4.11,0,0,0-3.35,4v7.36a.86.86,0,0,0,.86.86h9.45a.86.86,0,0,0,.86-.86V36.46A4,4,0,0,0,33.28,32.51Z"/><g class="cls-12"><rect class="cls-2" x="5" y="5" width="61" height="60"/><g class="cls-8"><rect class="cls-2" x="20.46" y="27.51" width="21.17" height="22.18"/></g></g><circle class="cls-2" cx="41.34" cy="30.57" r="2.52"/><g class="cls-13"><rect class="cls-2" x="5" y="5" width="61" height="60"/><g class="cls-8"><rect class="cls-2" x="33.82" y="23.05" width="15.04" height="15.04"/></g></g><path class="cls-9" d="M42.88,33.23a2.39,2.39,0,0,1-1.54.49,2.69,2.69,0,0,1-1.54-.49A2.83,2.83,0,0,0,37.49,36v4.81a.86.86,0,0,0,.86.86h6a.86.86,0,0,0,.86-.86V36A2.78,2.78,0,0,0,42.88,33.23Z"/><g class="cls-14"><rect class="cls-2" x="5" y="5" width="61" height="60"/><g class="cls-8"><rect class="cls-2" x="32.49" y="28.23" width="17.71" height="18.41"/></g></g><circle class="cls-2" cx="50.07" cy="30.57" r="2.52"/><g class="cls-15"><rect class="cls-2" x="5" y="5" width="61" height="60"/><g class="cls-8"><rect class="cls-2" x="42.55" y="23.05" width="15.04" height="15.04"/></g></g><path class="cls-9" d="M50.07,33.72a2.83,2.83,0,0,1-1.54-.49A2.83,2.83,0,0,0,46.21,36v4.81a.86.86,0,0,0,.86.86h6a.86.86,0,0,0,.86-.86V36a2.78,2.78,0,0,0-2.33-2.73A2.39,2.39,0,0,1,50.07,33.72Z"/><g class="cls-16"><rect class="cls-2" x="5" y="5" width="61" height="60"/><g class="cls-8"><rect class="cls-2" x="41.21" y="28.23" width="17.73" height="18.41"/></g></g></g></g></svg>